# xmcd CD database file
#
# Track frame offsets:
#	150
#	17205
#	38987
#	56312
#
# Disc length: 1037 seconds
#
# Revision: 0
# Processed by: cddbd v1.5PL3 Copyright (c) Steve Scherf et al.
# Submitted via: CDex 1.51
#
DISCID=2a040b04
DTITLE=Launchers - Hello...goodbye
DYEAR=1900
DGENRE=JPop
TTITLE0=Hello...goodbye
TTITLE1=気分はSuperGirl
TTITLE2=Hello...goodbye(instrumental)
TTITLE3=気分はSuperGirl(instrumental)
EXTD=
EXTT0=
EXTT1=
EXTT2=
EXTT3=
PLAYORDER=
